<?xml version="1.0" encoding="UTF-8"?>
<svg id="Layer_1" xmlns="http://www.w3.org/2000/svg" version="1.1" viewBox="0 0 47.5 51.9">
  <!-- Generator: Adobe Illustrator 29.4.0, SVG Export Plug-In . SVG Version: 2.1.0 Build 152)  -->
  <defs>
    <style>
      .st0 {
        fill: #27aae1;
      }
    </style>
  </defs>
  <path class="st0" d="M42.8,9.5L28.5,1.3c-1.5-.9-3.1-1.3-4.8-1.3s-3.3.4-4.8,1.3l-9.1,5.3v11l13.9-8,14.2,8.2v16.5l9.5,5.5v-21.9c0-3.4-1.8-6.5-4.8-8.2h0Z"/>
  <path class="st0" d="M23.8,42.4l-14.2-8.2v-16.5L0,12.2v21.9c0,3.4,1.8,6.5,4.8,8.2l14.2,8.2c1.5.8,3.1,1.3,4.8,1.3s3.3-.4,4.8-1.3l9.1-5.3v-11l-13.9,8h0Z"/>
</svg>