<?xml version="1.0" encoding="UTF-8"?>
<svg id="Layer_1" data-name="Layer 1" xmlns="http://www.w3.org/2000/svg" version="1.1" viewBox="0 0 268.14 51.91">
  <defs>
    <style>
      .cls-1 {
        fill: #27aae1;
        stroke-width: 0px;
      }
    </style>
  </defs>
  <g>
    <path class="cls-1" d="M42.75,9.5L28.5,1.27c-1.47-.85-3.11-1.27-4.75-1.27s-3.28.42-4.75,1.27l-9.11,5.26v10.97l13.86-8,14.25,8.23v16.46l9.5,5.49v-21.94c0-3.39-1.81-6.53-4.75-8.23Z"/>
    <path class="cls-1" d="M23.75,42.41l-14.25-8.23v-16.46L0,12.24v21.94c0,3.39,1.81,6.53,4.75,8.23l14.25,8.23c1.47.85,3.11,1.27,4.75,1.27s3.28-.42,4.75-1.27l9.1-5.26v-10.97l-13.86,8Z"/>
  </g>
  <path class="cls-1" d="M66.55,5.83c0-.12.6-.42,1.32-.42,1.32,0,2.58.66,2.58,3.78v13.2c2.58-3.42,5.88-5.4,10.62-5.4,7.56,0,13.5,5.88,13.5,14.94s-5.82,15.06-13.74,15.06c-5.16,0-8.82-2.4-10.44-5.1v2.76c0,1.44-.66,1.86-1.68,1.86h-.42c-1.02,0-1.74-.42-1.74-1.86V5.83ZM80.53,43.57c6.06,0,10.08-4.68,10.08-11.58s-4.2-11.58-9.96-11.58c-4.98,0-8.46,2.64-10.26,6.78v6.72c0,5.46,4.74,9.66,10.14,9.66Z"/>
  <path class="cls-1" d="M99.91,5.83c0-.12.6-.42,1.32-.42,1.32,0,2.58.66,2.58,3.78v35.46c0,1.44-.72,1.86-1.74,1.86h-.42c-1.02,0-1.74-.42-1.74-1.86V5.83Z"/>
  <path class="cls-1" d="M110.55,19.33c0-1.44.72-1.86,1.74-1.86h.42c1.02,0,1.74.42,1.74,1.86v14.82c0,5.76,2.88,9.18,7.98,9.18,4.14,0,7.44-2.46,9.12-6.06v-17.94c0-1.44.72-1.86,1.74-1.86h.42c1.02,0,1.74.42,1.74,1.86v26.76c0,.12-.6.42-1.32.42-1.32,0-2.52-.66-2.52-3.78v-.9c-2.04,3.06-5.34,5.16-9.72,5.16-7.56,0-11.34-5.04-11.34-12.6v-15.06Z"/>
  <path class="cls-1" d="M155.05,16.99c8.04,0,13.32,5.7,13.32,14.4v.36c0,1.08-.42,1.32-1.62,1.32h-22.2c.3,6.12,4.74,10.44,10.86,10.44,5.58,0,8.1-2.4,9.78-5.1.12-.18,2.28.36,2.28,2.22,0,1.98-4.32,6.36-12.06,6.36-8.7,0-14.76-6.12-14.76-14.88s6.12-15.12,14.4-15.12ZM164.23,29.71c-.36-5.64-3.84-9.3-9.18-9.3s-9.54,3.84-10.38,9.3h19.56Z"/>
  <path class="cls-1" d="M173.55,5.83c0-.12.6-.42,1.32-.42,1.32,0,2.58.66,2.58,3.78v13.08c1.98-3.06,5.16-5.28,9.66-5.28,7.56,0,11.34,5.04,11.34,12.6v15.06c0,1.44-.72,1.86-1.74,1.86h-.42c-1.02,0-1.74-.42-1.74-1.86v-14.82c0-5.76-2.88-9.18-7.68-9.18-5.64,0-9.42,3.84-9.42,9.78v14.22c0,1.44-.72,1.86-1.74,1.86h-.42c-1.02,0-1.74-.42-1.74-1.86V5.83Z"/>
  <path class="cls-1" d="M204.58,7.99c0-1.74.9-2.58,2.64-2.58s2.52.84,2.52,2.58-.9,2.58-2.64,2.58c-1.62,0-2.52-.9-2.52-2.58ZM205.18,19.33c0-1.44.72-1.86,1.74-1.86h.42c1.02,0,1.74.42,1.74,1.86v25.32c0,1.44-.72,1.86-1.74,1.86h-.42c-1.02,0-1.74-.42-1.74-1.86v-25.32Z"/>
  <path class="cls-1" d="M212.89,18.61c-.06-.24.54-1.14,1.92-1.14s2.04.54,2.94,2.88l8.4,22.44,8.58-22.44c.9-2.34,1.62-2.88,2.82-2.88,1.38,0,1.98.96,1.92,1.14l-10.5,26.46c-.42,1.02-.84,1.56-2.82,1.56s-2.22-.42-2.64-1.44l-10.62-26.58Z"/>
  <path class="cls-1" d="M254.82,16.99c8.04,0,13.32,5.7,13.32,14.4v.36c0,1.08-.42,1.32-1.62,1.32h-22.2c.3,6.12,4.74,10.44,10.86,10.44,5.58,0,8.1-2.4,9.78-5.1.12-.18,2.28.36,2.28,2.22,0,1.98-4.32,6.36-12.06,6.36-8.7,0-14.76-6.12-14.76-14.88s6.12-15.12,14.4-15.12ZM264,29.71c-.36-5.64-3.84-9.3-9.18-9.3s-9.54,3.84-10.38,9.3h19.56Z"/>
</svg>